{
	"asset":{
		"generator":"Khronos glTF Blender I/O v4.1.62",
		"version":"2.0"
	},
	"scene":0,
	"scenes":[
		{
			"name":"Scene",
			"nodes":[
				37
			]
		}
	],
	"nodes":[
		{
			"name":"head0",
			"rotation":[
				0.6971758604049683,
				0.007202018052339554,
				0.021700045093894005,
				0.7165354490280151
			],
			"scale":[
				1,
				0.9999998807907104,
				0.9999998807907104
			],
			"translation":[
				-1.1461125382083992e-09,
				8.655019760131836,
				9.532517992738576e-07
			]
		},
		{
			"children":[
				0
			],
			"name":"neck1",
			"rotation":[
				-0.08389026671648026,
				1.4447755214419544e-09,
				1.7253684037044081e-09,
				0.9964749813079834
			],
			"scale":[
				1,
				1.0000001192092896,
				1
			],
			"translation":[
				-7.418700320727112e-09,
				7.1525983810424805,
				1.3884005056752358e-11
			]
		},
		{
			"children":[
				1
			],
			"name":"neck0",
			"rotation":[
				-0.3436932861804962,
				-0.004056195728480816,
				-0.009476281702518463,
				0.9390254020690918
			],
			"scale":[
				0.9999999403953552,
				1,
				0.9999999403953552
			],
			"translation":[
				1.9371509552001953e-07,
				6.662772178649902,
				-3.7392601370811462e-06
			]
		},
		{
			"name":"leg_front_left_toe",
			"rotation":[
				-0.6321607828140259,
				1.6371332378639636e-07,
				3.0683318641422375e-07,
				0.7748372554779053
			],
			"scale":[
				1,
				0.9999999403953552,
				0.9999999403953552
			],
			"translation":[
				-4.7201410779962316e-08,
				6.226754665374756,
				2.7934706849919166e-06
			]
		},
		{
			"children":[
				3
			],
			"name":"leg_front_left_ankle",
			"rotation":[
				0.13352225720882416,
				-0.061117984354496,
				-0.006197840441018343,
				0.9891400337219238
			],
			"scale":[
				0.9999998807907104,
				0.9999997615814209,
				0.9999998211860657
			],
			"translation":[
				3.5762786865234375e-07,
				8.746713638305664,
				7.748603820800781e-07
			]
		},
		{
			"children":[
				4
			],
			"name":"leg_front_left_bot0",
			"rotation":[
				-0.023677363991737366,
				-0.9703332185745239,
				-0.23406261205673218,
				0.055745333433151245
			],
			"scale":[
				1,
				0.9999998807907104,
				0.9999999403953552
			],
			"translation":[
				2.2316817194223404e-07,
				10.25220775604248,
				-2.6369434635853395e-08
			]
		},
		{
			"children":[
				5
			],
			"name":"leg_front_left_top1",
			"rotation":[
				0.014575219713151455,
				0.5974379181861877,
				-0.2925018072128296,
				0.7465240955352783
			],
			"scale":[
				1,
				1.0000001192092896,
				1
			],
			"translation":[
				-1.6987323760986328e-06,
				9.735121726989746,
				-6.9141387939453125e-06
			]
		},
		{
			"children":[
				6
			],
			"name":"leg_front_left_top0",
			"rotation":[
				0.6480068564414978,
				0.5005178451538086,
				0.5413294434547424,
				0.1911323517560959
			],
			"scale":[
				1.0000001192092896,
				0.9999997615814209,
				0.9999999403953552
			],
			"translation":[
				0.20586490631103516,
				6.389798641204834,
				1.3928816318511963
			]
		},
		{
			"name":"leg_front_right_toe",
			"rotation":[
				-0.6321607232093811,
				1.0556041161180474e-06,
				9.089076797863527e-07,
				0.77483731508255
			],
			"scale":[
				1,
				0.9999999403953552,
				0.9999999403953552
			],
			"translation":[
				-2.2869699023431167e-07,
				6.226766109466553,
				2.1792229745187797e-06
			]
		},
		{
			"children":[
				8
			],
			"name":"leg_front_right_ankle",
			"rotation":[
				0.1335226446390152,
				0.061117250472307205,
				0.0061974492855370045,
				0.9891400337219238
			],
			"scale":[
				0.9999999403953552,
				1,
				1
			],
			"translation":[
				-5.364418029785156e-07,
				8.746722221374512,
				4.76837158203125e-07
			]
		},
		{
			"children":[
				9
			],
			"name":"leg_front_right_bot0",
			"rotation":[
				-0.023676250129938126,
				0.970333456993103,
				0.2340627908706665,
				0.05574139952659607
			],
			"scale":[
				0.9999999403953552,
				1.0000001192092896,
				1
			],
			"translation":[
				3.920722519978881e-07,
				10.252217292785645,
				-7.35242110749823e-07
			]
		},
		{
			"children":[
				10
			],
			"name":"leg_front_right_top1",
			"rotation":[
				0.01585208624601364,
				-0.6497122049331665,
				0.2759245038032532,
				0.708158552646637
			],
			"scale":[
				1,
				1,
				1.0000001192092896
			],
			"translation":[
				5.751848220825195e-06,
				9.473857879638672,
				-2.8312206268310547e-07
			]
		},
		{
			"children":[
				11
			],
			"name":"leg_front_right_top0",
			"rotation":[
				0.6740709543228149,
				-0.4873655140399933,
				-0.5074798464775085,
				0.22487221658229828
			],
			"scale":[
				0.9999998211860657,
				0.9999996423721313,
				0.9999998211860657
			],
			"translation":[
				-0.22940941154956818,
				6.390833377838135,
				1.3969883918762207
			]
		},
		{
			"children":[
				2,
				7,
				12
			],
			"name":"body_top1",
			"rotation":[
				-0.02113465778529644,
				0.00722323264926672,
				0.007353761233389378,
				0.999723494052887
			],
			"scale":[
				0.9999998807907104,
				1,
				0.9999999403953552
			],
			"translation":[
				1.9370773429727706e-08,
				6.701071262359619,
				1.4632731790698017e-06
			]
		},
		{
			"children":[
				13
			],
			"name":"body_top0",
			"rotation":[
				-0.015215407125651836,
				-0.017390478402376175,
				-0.017704738304018974,
				0.9995761513710022
			],
			"scale":[
				1.0000001192092896,
				1,
				1
			],
			"translation":[
				1.043081283569336e-07,
				6.204043865203857,
				2.2118911147117615e-06
			]
		},
		{
			"name":"tail6",
			"rotation":[
				-0.004688667133450508,
				0.0010064393281936646,
				-0.0010043007787317038,
				0.9999880194664001
			],
			"scale":[
				0.9999998211860657,
				1,
				0.9999999403953552
			],
			"translation":[
				-2.7939677238464355e-08,
				4.107913494110107,
				1.4528632164001465e-07
			]
		},
		{
			"children":[
				15
			],
			"name":"tail5",
			"rotation":[
				0.006976649630814791,
				-0.00016294309170916677,
				0.00023839977802708745,
				0.9999756217002869
			],
			"scale":[
				0.9999999403953552,
				1,
				0.9999999403953552
			],
			"translation":[
				-3.725290298461914e-09,
				4.01154088973999,
				5.587935447692871e-09
			]
		},
		{
			"children":[
				16
			],
			"name":"tail4",
			"rotation":[
				0.016452571377158165,
				-0.00632428377866745,
				0.0060742199420928955,
				0.999826192855835
			],
			"scale":[
				1,
				1,
				1.000000238418579
			],
			"translation":[
				0,
				2.156057834625244,
				2.728775143623352e-07
			]
		},
		{
			"children":[
				17
			],
			"name":"tail3",
			"rotation":[
				3.659224319108034e-07,
				-1.6646807807774167e-06,
				1.1152587831020355e-07,
				1
			],
			"scale":[
				1,
				1,
				1.0000001192092896
			],
			"translation":[
				9.611248970031738e-07,
				2.0194733142852783,
				-3.3527612686157227e-08
			]
		},
		{
			"children":[
				18
			],
			"name":"tail2",
			"rotation":[
				0.021711649373173714,
				-0.08932720869779587,
				0.08072042465209961,
				0.9924885630607605
			],
			"translation":[
				-2.086162567138672e-07,
				8.972161293029785,
				7.525086402893066e-07
			]
		},
		{
			"children":[
				19
			],
			"name":"tail1",
			"rotation":[
				-0.05906818434596062,
				0.23030371963977814,
				-0.2086680382490158,
				0.9486457705497742
			],
			"scale":[
				0.9999999403953552,
				0.9999998211860657,
				1
			],
			"translation":[
				1.1920928955078125e-07,
				1.6522771120071411,
				-3.557652235031128e-07
			]
		},
		{
			"children":[
				20
			],
			"name":"tail0",
			"rotation":[
				0.16476932168006897,
				-0.0843956246972084,
				0.04068681225180626,
				0.9818722009658813
			],
			"scale":[
				0.9999999403953552,
				0.9999999403953552,
				0.9999998807907104
			],
			"translation":[
				0,
				8.259660720825195,
				-1.430511474609375e-06
			]
		},
		{
			"children":[
				21
			],
			"name":"pelvis",
			"rotation":[
				-0.15902870893478394,
				-0.06478290259838104,
				0.06108296662569046,
				0.9832506775856018
			],
			"scale":[
				1,
				0.9999998807907104,
				1
			],
			"translation":[
				2.9616057872772217e-07,
				11.859639167785645,
				-5.4156407713890076e-06
			]
		},
		{
			"name":"leg_hind_right_toe",
			"rotation":[
				-0.6186893582344055,
				-0.20441840589046478,
				-0.20442263782024384,
				0.7305122017860413
			],
			"scale":[
				1,
				0.9999999403953552,
				0.9999999403953552
			],
			"translation":[
				-2.384185791015625e-07,
				10.93628978729248,
				-4.76837158203125e-07
			]
		},
		{
			"children":[
				23
			],
			"name":"leg_hind_right_ankle",
			"rotation":[
				-0.3211200535297394,
				-0.13191334903240204,
				-0.10824250429868698,
				0.9315387010574341
			],
			"scale":[
				0.9999999403953552,
				0.9999998211860657,
				1
			],
			"translation":[
				0,
				12.4324312210083,
				2.384185791015625e-07
			]
		},
		{
			"children":[
				24
			],
			"name":"leg_hind_right_bot0",
			"rotation":[
				-2.572911853349069e-06,
				-0.8759726881980896,
				0.2639913558959961,
				0.4037083685398102
			],
			"scale":[
				1,
				0.9999998807907104,
				1
			],
			"translation":[
				3.216808863726328e-07,
				3.239865303039551,
				-1.483886080677621e-07
			]
		},
		{
			"children":[
				25
			],
			"name":"leg_hind_right_top1",
			"rotation":[
				-8.850108315527905e-06,
				0.374103307723999,
				0.4169066250324249,
				0.8283933997154236
			],
			"scale":[
				1,
				1.0000001192092896,
				1
			],
			"translation":[
				-1.043081283569336e-07,
				10.720044136047363,
				-2.2351741790771484e-08
			]
		},
		{
			"children":[
				26
			],
			"name":"leg_hind_right_top0",
			"rotation":[
				0.5598770976066589,
				-0.598257839679718,
				0.5730780959129333,
				0.014380027540028095
			],
			"scale":[
				1.0000001192092896,
				0.9999998211860657,
				0.9999998807907104
			],
			"translation":[
				-0.3387630581855774,
				11.765073776245117,
				-1.3336223363876343
			]
		},
		{
			"name":"leg_hind_left_toe",
			"rotation":[
				-0.6186866760253906,
				0.20441311597824097,
				0.2044292837381363,
				0.7305140495300293
			],
			"scale":[
				1,
				1,
				0.9999998807907104
			],
			"translation":[
				2.384185791015625e-07,
				10.936279296875,
				-2.384185791015625e-07
			]
		},
		{
			"children":[
				28
			],
			"name":"leg_hind_left_ankle",
			"rotation":[
				-0.3211209177970886,
				0.13190239667892456,
				0.10823993384838104,
				0.9315402507781982
			],
			"scale":[
				1,
				0.9999999403953552,
				0.9999999403953552
			],
			"translation":[
				2.384185791015625e-07,
				12.432449340820312,
				-2.384185791015625e-07
			]
		},
		{
			"children":[
				29
			],
			"name":"leg_hind_left_bot0",
			"rotation":[
				-1.2758185619077267e-07,
				0.8759765625,
				-0.26399174332618713,
				0.403699666261673
			],
			"scale":[
				1,
				1.000000238418579,
				1
			],
			"translation":[
				5.601102657237789e-07,
				3.239861011505127,
				-1.449247974960599e-07
			]
		},
		{
			"children":[
				30
			],
			"name":"leg_hind_left_top1",
			"rotation":[
				-2.917015763159725e-06,
				-0.37862321734428406,
				-0.41448619961738586,
				0.8275540471076965
			],
			"scale":[
				1,
				1,
				1.0000001192092896
			],
			"translation":[
				8.642673492431641e-07,
				10.651169776916504,
				-8.791685104370117e-07
			]
		},
		{
			"children":[
				31
			],
			"name":"leg_hind_left_top0",
			"rotation":[
				0.5612574815750122,
				0.6000528335571289,
				-0.5698330998420715,
				0.014729614369571209
			],
			"scale":[
				1,
				0.9999997615814209,
				0.9999999403953552
			],
			"translation":[
				0.34958863258361816,
				11.767236709594727,
				-1.332485556602478
			]
		},
		{
			"children":[
				22,
				27,
				32
			],
			"name":"body_bot",
			"rotation":[
				0.9992390871047974,
				-0.015691237524151802,
				0.019378548488020897,
				0.029991932213306427
			],
			"scale":[
				1.0000011920928955,
				1,
				1.0000039339065552
			],
			"translation":[
				0.018785951659083366,
				0.995150625705719,
				-0.07205255329608917
			]
		},
		{
			"children":[
				14,
				33
			],
			"name":"body",
			"rotation":[
				0.7113012075424194,
				1.2045765629409289e-07,
				0.024817047640681267,
				0.7024491429328918
			],
			"scale":[
				1,
				0.9999999403953552,
				0.9999999403953552
			],
			"translation":[
				0.526811957359314,
				34.540531158447266,
				4.409453868865967
			]
		},
		{
			"children":[
				34
			],
			"name":"root",
			"rotation":[
				-0.7071031928062439,
				0,
				0,
				0.7071103453636169
			],
			"translation":[
				-0.5105066299438477,
				-0.1595306396484375,
				26.078956604003906
			]
		},
		{
			"mesh":0,
			"name":"12221_Cat_v1_l3",
			"skin":0
		},
		{
			"children":[
				36,
				35
			],
			"name":"rig",
			"rotation":[
				0.7071068286895752,
				0,
				0,
				0.7071068286895752
			]
		}
	],
	"animations":[
		{
			"channels":[
				{
					"sampler":0,
					"target":{
						"node":35,
						"path":"translation"
					}
				},
				{
					"sampler":1,
					"target":{
						"node":35,
						"path":"rotation"
					}
				},
				{
					"sampler":2,
					"target":{
						"node":35,
						"path":"scale"
					}
				},
				{
					"sampler":3,
					"target":{
						"node":34,
						"path":"translation"
					}
				},
				{
					"sampler":4,
					"target":{
						"node":34,
						"path":"rotation"
					}
				},
				{
					"sampler":5,
					"target":{
						"node":34,
						"path":"scale"
					}
				},
				{
					"sampler":6,
					"target":{
						"node":14,
						"path":"translation"
					}
				},
				{
					"sampler":7,
					"target":{
						"node":14,
						"path":"rotation"
					}
				},
				{
					"sampler":8,
					"target":{
						"node":14,
						"path":"scale"
					}
				},
				{
					"sampler":9,
					"target":{
						"node":13,
						"path":"translation"
					}
				},
				{
					"sampler":10,
					"target":{
						"node":13,
						"path":"rotation"
					}
				},
				{
					"sampler":11,
					"target":{
						"node":13,
						"path":"scale"
					}
				},
				{
					"sampler":12,
					"target":{
						"node":2,
						"path":"translation"
					}
				},
				{
					"sampler":13,
					"target":{
						"node":2,
						"path":"rotation"
					}
				},
				{
					"sampler":14,
					"target":{
						"node":2,
						"path":"scale"
					}
				},
				{
					"sampler":15,
					"target":{
						"node":1,
						"path":"translation"
					}
				},
				{
					"sampler":16,
					"target":{
						"node":1,
						"path":"rotation"
					}
				},
				{
					"sampler":17,
					"target":{
						"node":1,
						"path":"scale"
					}
				},
				{
					"sampler":18,
					"target":{
						"node":0,
						"path":"translation"
					}
				},
				{
					"sampler":19,
					"target":{
						"node":0,
						"path":"rotation"
					}
				},
				{
					"sampler":20,
					"target":{
						"node":0,
						"path":"scale"
					}
				},
				{
					"sampler":21,
					"target":{
						"node":7,
						"path":"translation"
					}
				},
				{
					"sampler":22,
					"target":{
						"node":7,
						"path":"rotation"
					}
				},
				{
					"sampler":23,
					"target":{
						"node":7,
						"path":"scale"
					}
				},
				{
					"sampler":24,
					"target":{
						"node":6,
						"path":"translation"
					}
				},
				{
					"sampler":25,
					"target":{
						"node":6,
						"path":"rotation"
					}
				},
				{
					"sampler":26,
					"target":{
						"node":6,
						"path":"scale"
					}
				},
				{
					"sampler":27,
					"target":{
						"node":5,
						"path":"translation"
					}
				},
				{
					"sampler":28,
					"target":{
						"node":5,
						"path":"rotation"
					}
				},
				{
					"sampler":29,
					"target":{
						"node":5,
						"path":"scale"
					}
				},
				{
					"sampler":30,
					"target":{
						"node":4,
						"path":"translation"
					}
				},
				{
					"sampler":31,
					"target":{
						"node":4,
						"path":"rotation"
					}
				},
				{
					"sampler":32,
					"target":{
						"node":4,
						"path":"scale"
					}
				},
				{
					"sampler":33,
					"target":{
						"node":3,
						"path":"translation"
					}
				},
				{
					"sampler":34,
					"target":{
						"node":3,
						"path":"rotation"
					}
				},
				{
					"sampler":35,
					"target":{
						"node":3,
						"path":"scale"
					}
				},
				{
					"sampler":36,
					"target":{
						"node":12,
						"path":"translation"
					}
				},
				{
					"sampler":37,
					"target":{
						"node":12,
						"path":"rotation"
					}
				},
				{
					"sampler":38,
					"target":{
						"node":12,
						"path":"scale"
					}
				},
				{
					"sampler":39,
					"target":{
						"node":11,
						"path":"translation"
					}
				},
				{
					"sampler":40,
					"target":{
						"node":11,
						"path":"rotation"
					}
				},
				{
					"sampler":41,
					"target":{
						"node":11,
						"path":"scale"
					}
				},
				{
					"sampler":42,
					"target":{
						"node":10,
						"path":"translation"
					}
				},
				{
					"sampler":43,
					"target":{
						"node":10,
						"path":"rotation"
					}
				},
				{
					"sampler":44,
					"target":{
						"node":10,
						"path":"scale"
					}
				},
				{
					"sampler":45,
					"target":{
						"node":9,
						"path":"translation"
					}
				},
				{
					"sampler":46,
					"target":{
						"node":9,
						"path":"rotation"
					}
				},
				{
					"sampler":47,
					"target":{
						"node":9,
						"path":"scale"
					}
				},
				{
					"sampler":48,
					"target":{
						"node":8,
						"path":"translation"
					}
				},
				{
					"sampler":49,
					"target":{
						"node":8,
						"path":"rotation"
					}
				},
				{
					"sampler":50,
					"target":{
						"node":8,
						"path":"scale"
					}
				},
				{
					"sampler":51,
					"target":{
						"node":33,
						"path":"translation"
					}
				},
				{
					"sampler":52,
					"target":{
						"node":33,
						"path":"rotation"
					}
				},
				{
					"sampler":53,
					"target":{
						"node":33,
						"path":"scale"
					}
				},
				{
					"sampler":54,
					"target":{
						"node":22,
						"path":"translation"
					}
				},
				{
					"sampler":55,
					"target":{
						"node":22,
						"path":"rotation"
					}
				},
				{
					"sampler":56,
					"target":{
						"node":22,
						"path":"scale"
					}
				},
				{
					"sampler":57,
					"target":{
						"node":21,
						"path":"translation"
					}
				},
				{
					"sampler":58,
					"target":{
						"node":21,
						"path":"rotation"
					}
				},
				{
					"sampler":59,
					"target":{
						"node":21,
						"path":"scale"
					}
				},
				{
					"sampler":60,
					"target":{
						"node":20,
						"path":"translation"
					}
				},
				{
					"sampler":61,
					"target":{
						"node":20,
						"path":"rotation"
					}
				},
				{
					"sampler":62,
					"target":{
						"node":20,
						"path":"scale"
					}
				},
				{
					"sampler":63,
					"target":{
						"node":19,
						"path":"translation"
					}
				},
				{
					"sampler":64,
					"target":{
						"node":19,
						"path":"rotation"
					}
				},
				{
					"sampler":65,
					"target":{
						"node":19,
						"path":"scale"
					}
				},
				{
					"sampler":66,
					"target":{
						"node":18,
						"path":"translation"
					}
				},
				{
					"sampler":67,
					"target":{
						"node":18,
						"path":"rotation"
					}
				},
				{
					"sampler":68,
					"target":{
						"node":18,
						"path":"scale"
					}
				},
				{
					"sampler":69,
					"target":{
						"node":17,
						"path":"translation"
					}
				},
				{
					"sampler":70,
					"target":{
						"node":17,
						"path":"rotation"
					}
				},
				{
					"sampler":71,
					"target":{
						"node":17,
						"path":"scale"
					}
				},
				{
					"sampler":72,
					"target":{
						"node":16,
						"path":"translation"
					}
				},
				{
					"sampler":73,
					"target":{
						"node":16,
						"path":"rotation"
					}
				},
				{
					"sampler":74,
					"target":{
						"node":16,
						"path":"scale"
					}
				},
				{
					"sampler":75,
					"target":{
						"node":15,
						"path":"translation"
					}
				},
				{
					"sampler":76,
					"target":{
						"node":15,
						"path":"rotation"
					}
				},
				{
					"sampler":77,
					"target":{
						"node":15,
						"path":"scale"
					}
				},
				{
					"sampler":78,
					"target":{
						"node":27,
						"path":"translation"
					}
				},
				{
					"sampler":79,
					"target":{
						"node":27,
						"path":"rotation"
					}
				},
				{
					"sampler":80,
					"target":{
						"node":27,
						"path":"scale"
					}
				},
				{
					"sampler":81,
					"target":{
						"node":26,
						"path":"translation"
					}
				},
				{
					"sampler":82,
					"target":{
						"node":26,
						"path":"rotation"
					}
				},
				{
					"sampler":83,
					"target":{
						"node":26,
						"path":"scale"
					}
				},
				{
					"sampler":84,
					"target":{
						"node":25,
						"path":"translation"
					}
				},
				{
					"sampler":85,
					"target":{
						"node":25,
						"path":"rotation"
					}
				},
				{
					"sampler":86,
					"target":{
						"node":25,
						"path":"scale"
					}
				},
				{
					"sampler":87,
					"target":{
						"node":24,
						"path":"translation"
					}
				},
				{
					"sampler":88,
					"target":{
						"node":24,
						"path":"rotation"
					}
				},
				{
					"sampler":89,
					"target":{
						"node":24,
						"path":"scale"
					}
				},
				{
					"sampler":90,
					"target":{
						"node":23,
						"path":"translation"
					}
				},
				{
					"sampler":91,
					"target":{
						"node":23,
						"path":"rotation"
					}
				},
				{
					"sampler":92,
					"target":{
						"node":23,
						"path":"scale"
					}
				},
				{
					"sampler":93,
					"target":{
						"node":32,
						"path":"translation"
					}
				},
				{
					"sampler":94,
					"target":{
						"node":32,
						"path":"rotation"
					}
				},
				{
					"sampler":95,
					"target":{
						"node":32,
						"path":"scale"
					}
				},
				{
					"sampler":96,
					"target":{
						"node":31,
						"path":"translation"
					}
				},
				{
					"sampler":97,
					"target":{
						"node":31,
						"path":"rotation"
					}
				},
				{
					"sampler":98,
					"target":{
						"node":31,
						"path":"scale"
					}
				},
				{
					"sampler":99,
					"target":{
						"node":30,
						"path":"translation"
					}
				},
				{
					"sampler":100,
					"target":{
						"node":30,
						"path":"rotation"
					}
				},
				{
					"sampler":101,
					"target":{
						"node":30,
						"path":"scale"
					}
				},
				{
					"sampler":102,
					"target":{
						"node":29,
						"path":"translation"
					}
				},
				{
					"sampler":103,
					"target":{
						"node":29,
						"path":"rotation"
					}
				},
				{
					"sampler":104,
					"target":{
						"node":29,
						"path":"scale"
					}
				},
				{
					"sampler":105,
					"target":{
						"node":28,
						"path":"translation"
					}
				},
				{
					"sampler":106,
					"target":{
						"node":28,
						"path":"rotation"
					}
				},
				{
					"sampler":107,
					"target":{
						"node":28,
						"path":"scale"
					}
				},
				{
					"sampler":108,
					"target":{
						"node":37,
						"path":"translation"
					}
				},
				{
					"sampler":109,
					"target":{
						"node":37,
						"path":"rotation"
					}
				},
				{
					"sampler":110,
					"target":{
						"node":37,
						"path":"scale"
					}
				}
			],
			"name":"rig|rig|lie_down",
			"samplers":[
				{
					"input":7,
					"interpolation":"STEP",
					"output":8
				},
				{
					"input":7,
					"interpolation":"STEP",
					"output":9
				},
				{
					"input":7,
					"interpolation":"STEP",
					"output":10
				},
				{
					"input":11,
					"interpolation":"LINEAR",
					"output":12
				},
				{
					"input":11,
					"interpolation":"LINEAR",
					"output":13
				},
				{
					"input":7,
					"interpolation":"STEP",
					"output":14
				},
				{
					"input":7,
					"interpolation":"LINEAR",
					"output":15
				},
				{
					"input":11,
					"interpolation":"LINEAR",
					"output":16
				},
				{
					"input":7,
					"interpolation":"LINEAR",
					"output":17
				},
				{
					"input":7,
					"interpolation":"LINEAR",
					"output":18
				},
				{
					"input":11,
					"interpolation":"LINEAR",
					"output":19
				},
				{
					"input":7,
					"interpolation":"LINEAR",
					"output":20
				},
				{
					"input":7,
					"interpolation":"LINEAR",
					"output":21
				},
				{
					"input":11,
					"interpolation":"LINEAR",
					"output":22
				},
				{
					"input":7,
					"interpolation":"LINEAR",
					"output":23
				},
				{
					"input":7,
					"interpolation":"LINEAR",
					"output":24
				},
				{
					"input":11,
					"interpolation":"LINEAR",
					"output":25
				},
				{
					"input":7,
					"interpolation":"LINEAR",
					"output":26
				},
				{
					"input":7,
					"interpolation":"LINEAR",
					"output":27
				},
				{
					"input":11,
					"interpolation":"LINEAR",
					"output":28
				},
				{
					"input":7,
					"interpolation":"LINEAR",
					"output":29
				},
				{
					"input":7,
					"interpolation":"LINEAR",
					"output":30
				},
				{
					"input":11,
					"interpolation":"LINEAR",
					"output":31
				},
				{
					"input":7,
					"interpolation":"LINEAR",
					"output":32
				},
				{
					"input":7,
					"interpolation":"LINEAR",
					"output":33
				},
				{
					"input":11,
					"interpolation":"LINEAR",
					"output":34
				},
				{
					"input":7,
					"interpolation":"LINEAR",
					"output":35
				},
				{
					"input":7,
					"interpolation":"LINEAR",
					"output":36
				},
				{
					"input":11,
					"interpolation":"LINEAR",
					"output":37
				},
				{
					"input":7,
					"interpolation":"LINEAR",
					"output":38
				},
				{
					"input":7,
					"interpolation":"LINEAR",
					"output":39
				},
				{
					"input":11,
					"interpolation":"LINEAR",
					"output":40
				},
				{
					"input":7,
					"interpolation":"LINEAR",
					"output":41
				},
				{
					"input":7,
					"interpolation":"LINEAR",
					"output":42
				},
				{
					"input":11,
					"interpolation":"LINEAR",
					"output":43
				},
				{
					"input":7,
					"interpolation":"LINEAR",
					"output":44
				},
				{
					"input":11,
					"interpolation":"LINEAR",
					"output":45
				},
				{
					"input":11,
					"interpolation":"LINEAR",
					"output":46
				},
				{
					"input":7,
					"interpolation":"STEP",
					"output":47
				},
				{
					"input":7,
					"interpolation":"LINEAR",
					"output":48
				},
				{
					"input":11,
					"interpolation":"LINEAR",
					"output":49
				},
				{
					"input":7,
					"interpolation":"LINEAR",
					"output":50
				},
				{
					"input":7,
					"interpolation":"LINEAR",
					"output":51
				},
				{
					"input":11,
					"interpolation":"LINEAR",
					"output":52
				},
				{
					"input":7,
					"interpolation":"LINEAR",
					"output":53
				},
				{
					"input":7,
					"interpolation":"LINEAR",
					"output":54
				},
				{
					"input":11,
					"interpolation":"LINEAR",
					"output":55
				},
				{
					"input":7,
					"interpolation":"LINEAR",
					"output":56
				},
				{
					"input":7,
					"interpolation":"LINEAR",
					"output":57
				},
				{
					"input":11,
					"interpolation":"LINEAR",
					"output":58
				},
				{
					"input":7,
					"interpolation":"LINEAR",
					"output":59
				},
				{
					"input":11,
					"interpolation":"LINEAR",
					"output":60
				},
				{
					"input":11,
					"interpolation":"LINEAR",
					"output":61
				},
				{
					"input":7,
					"interpolation":"LINEAR",
					"output":62
				},
				{
					"input":11,
					"interpolation":"LINEAR",
					"output":63
				},
				{
					"input":11,
					"interpolation":"LINEAR",
					"output":64
				},
				{
					"input":7,
					"interpolation":"LINEAR",
					"output":65
				},
				{
					"input":7,
					"interpolation":"LINEAR",
					"output":66
				},
				{
					"input":11,
					"interpolation":"LINEAR",
					"output":67
				},
				{
					"input":7,
					"interpolation":"LINEAR",
					"output":68
				},
				{
					"input":7,
					"interpolation":"LINEAR",
					"output":69
				},
				{
					"input":11,
					"interpolation":"LINEAR",
					"output":70
				},
				{
					"input":7,
					"interpolation":"LINEAR",
					"output":71
				},
				{
					"input":7,
					"interpolation":"LINEAR",
					"output":72
				},
				{
					"input":11,
					"interpolation":"LINEAR",
					"output":73
				},
				{
					"input":7,
					"interpolation":"LINEAR",
					"output":74
				},
				{
					"input":7,
					"interpolation":"LINEAR",
					"output":75
				},
				{
					"input":11,
					"interpolation":"LINEAR",
					"output":76
				},
				{
					"input":7,
					"interpolation":"LINEAR",
					"output":77
				},
				{
					"input":7,
					"interpolation":"LINEAR",
					"output":78
				},
				{
					"input":11,
					"interpolation":"LINEAR",
					"output":79
				},
				{
					"input":7,
					"interpolation":"LINEAR",
					"output":80
				},
				{
					"input":7,
					"interpolation":"LINEAR",
					"output":81
				},
				{
					"input":11,
					"interpolation":"LINEAR",
					"output":82
				},
				{
					"input":7,
					"interpolation":"LINEAR",
					"output":83
				},
				{
					"input":7,
					"interpolation":"LINEAR",
					"output":84
				},
				{
					"input":11,
					"interpolation":"LINEAR",
					"output":85
				},
				{
					"input":7,
					"interpolation":"LINEAR",
					"output":86
				},
				{
					"input":11,
					"interpolation":"LINEAR",
					"output":87
				},
				{
					"input":11,
					"interpolation":"LINEAR",
					"output":88
				},
				{
					"input":7,
					"interpolation":"LINEAR",
					"output":89
				},
				{
					"input":7,
					"interpolation":"LINEAR",
					"output":90
				},
				{
					"input":11,
					"interpolation":"LINEAR",
					"output":91
				},
				{
					"input":7,
					"interpolation":"LINEAR",
					"output":92
				},
				{
					"input":7,
					"interpolation":"LINEAR",
					"output":93
				},
				{
					"input":11,
					"interpolation":"LINEAR",
					"output":94
				},
				{
					"input":7,
					"interpolation":"LINEAR",
					"output":95
				},
				{
					"input":7,
					"interpolation":"LINEAR",
					"output":96
				},
				{
					"input":11,
					"interpolation":"LINEAR",
					"output":97
				},
				{
					"input":7,
					"interpolation":"LINEAR",
					"output":98
				},
				{
					"input":7,
					"interpolation":"LINEAR",
					"output":99
				},
				{
					"input":11,
					"interpolation":"LINEAR",
					"output":100
				},
				{
					"input":7,
					"interpolation":"LINEAR",
					"output":101
				},
				{
					"input":11,
					"interpolation":"LINEAR",
					"output":102
				},
				{
					"input":11,
					"interpolation":"LINEAR",
					"output":103
				},
				{
					"input":7,
					"interpolation":"LINEAR",
					"output":104
				},
				{
					"input":7,
					"interpolation":"LINEAR",
					"output":105
				},
				{
					"input":11,
					"interpolation":"LINEAR",
					"output":106
				},
				{
					"input":7,
					"interpolation":"LINEAR",
					"output":107
				},
				{
					"input":7,
					"interpolation":"LINEAR",
					"output":108
				},
				{
					"input":11,
					"interpolation":"LINEAR",
					"output":109
				},
				{
					"input":7,
					"interpolation":"LINEAR",
					"output":110
				},
				{
					"input":7,
					"interpolation":"LINEAR",
					"output":111
				},
				{
					"input":11,
					"interpolation":"LINEAR",
					"output":112
				},
				{
					"input":7,
					"interpolation":"LINEAR",
					"output":113
				},
				{
					"input":7,
					"interpolation":"LINEAR",
					"output":114
				},
				{
					"input":11,
					"interpolation":"LINEAR",
					"output":115
				},
				{
					"input":7,
					"interpolation":"LINEAR",
					"output":116
				},
				{
					"input":7,
					"interpolation":"STEP",
					"output":117
				},
				{
					"input":7,
					"interpolation":"STEP",
					"output":118
				},
				{
					"input":7,
					"interpolation":"STEP",
					"output":119
				}
			]
		}
	],
	"materials":[
		{
			"doubleSided":true,
			"name":"Cat",
			"pbrMetallicRoughness":{
				"baseColorFactor":[
					0.800000011920929,
					0.800000011920929,
					0.800000011920929,
					1
				],
				"metallicFactor":0,
				"roughnessFactor":0.5
			}
		}
	],
	"meshes":[
		{
			"name":"12221_Cat_v1_l3",
			"primitives":[
				{
					"attributes":{
						"POSITION":0,
						"NORMAL":1,
						"TEXCOORD_0":2,
						"JOINTS_0":3,
						"WEIGHTS_0":4
					},
					"indices":5,
					"material":0
				}
			]
		}
	],
	"skins":[
		{
			"inverseBindMatrices":6,
			"joints":[
				35,
				34,
				14,
				13,
				2,
				1,
				0,
				7,
				6,
				5,
				4,
				3,
				12,
				11,
				10,
				9,
				8,
				33,
				22,
				21,
				20,
				19,
				18,
				17,
				16,
				15,
				27,
				26,
				25,
				24,
				23,
				32,
				31,
				30,
				29,
				28
			],
			"name":"rig"
		}
	],
	"accessors":[
		{
			"bufferView":0,
			"componentType":5126,
			"count":10413,
			"max":[
				8.31047248840332,
				26.548830032348633,
				41.61225891113281
			],
			"min":[
				-9.331485748291016,
				-26.078954696655273,
				-41.93132019042969
			],
			"type":"VEC3"
		},
		{
			"bufferView":1,
			"componentType":5126,
			"count":10413,
			"type":"VEC3"
		},
		{
			"bufferView":2,
			"componentType":5126,
			"count":10413,
			"type":"VEC2"
		},
		{
			"bufferView":3,
			"componentType":5121,
			"count":10413,
			"type":"VEC4"
		},
		{
			"bufferView":4,
			"componentType":5126,
			"count":10413,
			"type":"VEC4"
		},
		{
			"bufferView":5,
			"componentType":5123,
			"count":58686,
			"type":"SCALAR"
		},
		{
			"bufferView":6,
			"componentType":5126,
			"count":36,
			"type":"MAT4"
		},
		{
			"bufferView":7,
			"componentType":5126,
			"count":2,
			"max":[
				1.1
			],
			"min":[
				0.03333333333333333
			],
			"type":"SCALAR"
		},
		{
			"bufferView":8,
			"componentType":5126,
			"count":2,
			"type":"VEC3"
		},
		{
			"bufferView":9,
			"componentType":5126,
			"count":2,
			"type":"VEC4"
		},
		{
			"bufferView":10,
			"componentType":5126,
			"count":2,
			"type":"VEC3"
		},
		{
			"bufferView":11,
			"componentType":5126,
			"count":33,
			"max":[
				1.1
			],
			"min":[
				0.03333333333333333
			],
			"type":"SCALAR"
		},
		{
			"bufferView":12,
			"componentType":5126,
			"count":33,
			"type":"VEC3"
		},
		{
			"bufferView":13,
			"componentType":5126,
			"count":33,
			"type":"VEC4"
		},
		{
			"bufferView":14,
			"componentType":5126,
			"count":2,
			"type":"VEC3"
		},
		{
			"bufferView":15,
			"componentType":5126,
			"count":2,
			"type":"VEC3"
		},
		{
			"bufferView":16,
			"componentType":5126,
			"count":33,
			"type":"VEC4"
		},
		{
			"bufferView":17,
			"componentType":5126,
			"count":2,
			"type":"VEC3"
		},
		{
			"bufferView":18,
			"componentType":5126,
			"count":2,
			"type":"VEC3"
		},
		{
			"bufferView":19,
			"componentType":5126,
			"count":33,
			"type":"VEC4"
		},
		{
			"bufferView":20,
			"componentType":5126,
			"count":2,
			"type":"VEC3"
		},
		{
			"bufferView":21,
			"componentType":5126,
			"count":2,
			"type":"VEC3"
		},
		{
			"bufferView":22,
			"componentType":5126,
			"count":33,
			"type":"VEC4"
		},
		{
			"bufferView":23,
			"componentType":5126,
			"count":2,
			"type":"VEC3"
		},
		{
			"bufferView":24,
			"componentType":5126,
			"count":2,
			"type":"VEC3"
		},
		{
			"bufferView":25,
			"componentType":5126,
			"count":33,
			"type":"VEC4"
		},
		{
			"bufferView":26,
			"componentType":5126,
			"count":2,
			"type":"VEC3"
		},
		{
			"bufferView":27,
			"componentType":5126,
			"count":2,
			"type":"VEC3"
		},
		{
			"bufferView":28,
			"componentType":5126,
			"count":33,
			"type":"VEC4"
		},
		{
			"bufferView":29,
			"componentType":5126,
			"count":2,
			"type":"VEC3"
		},
		{
			"bufferView":30,
			"componentType":5126,
			"count":2,
			"type":"VEC3"
		},
		{
			"bufferView":31,
			"componentType":5126,
			"count":33,
			"type":"VEC4"
		},
		{
			"bufferView":32,
			"componentType":5126,
			"count":2,
			"type":"VEC3"
		},
		{
			"bufferView":33,
			"componentType":5126,
			"count":2,
			"type":"VEC3"
		},
		{
			"bufferView":34,
			"componentType":5126,
			"count":33,
			"type":"VEC4"
		},
		{
			"bufferView":35,
			"componentType":5126,
			"count":2,
			"type":"VEC3"
		},
		{
			"bufferView":36,
			"componentType":5126,
			"count":2,
			"type":"VEC3"
		},
		{
			"bufferView":37,
			"componentType":5126,
			"count":33,
			"type":"VEC4"
		},
		{
			"bufferView":38,
			"componentType":5126,
			"count":2,
			"type":"VEC3"
		},
		{
			"bufferView":39,
			"componentType":5126,
			"count":2,
			"type":"VEC3"
		},
		{
			"bufferView":40,
			"componentType":5126,
			"count":33,
			"type":"VEC4"
		},
		{
			"bufferView":41,
			"componentType":5126,
			"count":2,
			"type":"VEC3"
		},
		{
			"bufferView":42,
			"componentType":5126,
			"count":2,
			"type":"VEC3"
		},
		{
			"bufferView":43,
			"componentType":5126,
			"count":33,
			"type":"VEC4"
		},
		{
			"bufferView":44,
			"componentType":5126,
			"count":2,
			"type":"VEC3"
		},
		{
			"bufferView":45,
			"componentType":5126,
			"count":33,
			"type":"VEC3"
		},
		{
			"bufferView":46,
			"componentType":5126,
			"count":33,
			"type":"VEC4"
		},
		{
			"bufferView":47,
			"componentType":5126,
			"count":2,
			"type":"VEC3"
		},
		{
			"bufferView":48,
			"componentType":5126,
			"count":2,
			"type":"VEC3"
		},
		{
			"bufferView":49,
			"componentType":5126,
			"count":33,
			"type":"VEC4"
		},
		{
			"bufferView":50,
			"componentType":5126,
			"count":2,
			"type":"VEC3"
		},
		{
			"bufferView":51,
			"componentType":5126,
			"count":2,
			"type":"VEC3"
		},
		{
			"bufferView":52,
			"componentType":5126,
			"count":33,
			"type":"VEC4"
		},
		{
			"bufferView":53,
			"componentType":5126,
			"count":2,
			"type":"VEC3"
		},
		{
			"bufferView":54,
			"componentType":5126,
			"count":2,
			"type":"VEC3"
		},
		{
			"bufferView":55,
			"componentType":5126,
			"count":33,
			"type":"VEC4"
		},
		{
			"bufferView":56,
			"componentType":5126,
			"count":2,
			"type":"VEC3"
		},
		{
			"bufferView":57,
			"componentType":5126,
			"count":2,
			"type":"VEC3"
		},
		{
			"bufferView":58,
			"componentType":5126,
			"count":33,
			"type":"VEC4"
		},
		{
			"bufferView":59,
			"componentType":5126,
			"count":2,
			"type":"VEC3"
		},
		{
			"bufferView":60,
			"componentType":5126,
			"count":33,
			"type":"VEC3"
		},
		{
			"bufferView":61,
			"componentType":5126,
			"count":33,
			"type":"VEC4"
		},
		{
			"bufferView":62,
			"componentType":5126,
			"count":2,
			"type":"VEC3"
		},
		{
			"bufferView":63,
			"componentType":5126,
			"count":33,
			"type":"VEC3"
		},
		{
			"bufferView":64,
			"componentType":5126,
			"count":33,
			"type":"VEC4"
		},
		{
			"bufferView":65,
			"componentType":5126,
			"count":2,
			"type":"VEC3"
		},
		{
			"bufferView":66,
			"componentType":5126,
			"count":2,
			"type":"VEC3"
		},
		{
			"bufferView":67,
			"componentType":5126,
			"count":33,
			"type":"VEC4"
		},
		{
			"bufferView":68,
			"componentType":5126,
			"count":2,
			"type":"VEC3"
		},
		{
			"bufferView":69,
			"componentType":5126,
			"count":2,
			"type":"VEC3"
		},
		{
			"bufferView":70,
			"componentType":5126,
			"count":33,
			"type":"VEC4"
		},
		{
			"bufferView":71,
			"componentType":5126,
			"count":2,
			"type":"VEC3"
		},
		{
			"bufferView":72,
			"componentType":5126,
			"count":2,
			"type":"VEC3"
		},
		{
			"bufferView":73,
			"componentType":5126,
			"count":33,
			"type":"VEC4"
		},
		{
			"bufferView":74,
			"componentType":5126,
			"count":2,
			"type":"VEC3"
		},
		{
			"bufferView":75,
			"componentType":5126,
			"count":2,
			"type":"VEC3"
		},
		{
			"bufferView":76,
			"componentType":5126,
			"count":33,
			"type":"VEC4"
		},
		{
			"bufferView":77,
			"componentType":5126,
			"count":2,
			"type":"VEC3"
		},
		{
			"bufferView":78,
			"componentType":5126,
			"count":2,
			"type":"VEC3"
		},
		{
			"bufferView":79,
			"componentType":5126,
			"count":33,
			"type":"VEC4"
		},
		{
			"bufferView":80,
			"componentType":5126,
			"count":2,
			"type":"VEC3"
		},
		{
			"bufferView":81,
			"componentType":5126,
			"count":2,
			"type":"VEC3"
		},
		{
			"bufferView":82,
			"componentType":5126,
			"count":33,
			"type":"VEC4"
		},
		{
			"bufferView":83,
			"componentType":5126,
			"count":2,
			"type":"VEC3"
		},
		{
			"bufferView":84,
			"componentType":5126,
			"count":2,
			"type":"VEC3"
		},
		{
			"bufferView":85,
			"componentType":5126,
			"count":33,
			"type":"VEC4"
		},
		{
			"bufferView":86,
			"componentType":5126,
			"count":2,
			"type":"VEC3"
		},
		{
			"bufferView":87,
			"componentType":5126,
			"count":33,
			"type":"VEC3"
		},
		{
			"bufferView":88,
			"componentType":5126,
			"count":33,
			"type":"VEC4"
		},
		{
			"bufferView":89,
			"componentType":5126,
			"count":2,
			"type":"VEC3"
		},
		{
			"bufferView":90,
			"componentType":5126,
			"count":2,
			"type":"VEC3"
		},
		{
			"bufferView":91,
			"componentType":5126,
			"count":33,
			"type":"VEC4"
		},
		{
			"bufferView":92,
			"componentType":5126,
			"count":2,
			"type":"VEC3"
		},
		{
			"bufferView":93,
			"componentType":5126,
			"count":2,
			"type":"VEC3"
		},
		{
			"bufferView":94,
			"componentType":5126,
			"count":33,
			"type":"VEC4"
		},
		{
			"bufferView":95,
			"componentType":5126,
			"count":2,
			"type":"VEC3"
		},
		{
			"bufferView":96,
			"componentType":5126,
			"count":2,
			"type":"VEC3"
		},
		{
			"bufferView":97,
			"componentType":5126,
			"count":33,
			"type":"VEC4"
		},
		{
			"bufferView":98,
			"componentType":5126,
			"count":2,
			"type":"VEC3"
		},
		{
			"bufferView":99,
			"componentType":5126,
			"count":2,
			"type":"VEC3"
		},
		{
			"bufferView":100,
			"componentType":5126,
			"count":33,
			"type":"VEC4"
		},
		{
			"bufferView":101,
			"componentType":5126,
			"count":2,
			"type":"VEC3"
		},
		{
			"bufferView":102,
			"componentType":5126,
			"count":33,
			"type":"VEC3"
		},
		{
			"bufferView":103,
			"componentType":5126,
			"count":33,
			"type":"VEC4"
		},
		{
			"bufferView":104,
			"componentType":5126,
			"count":2,
			"type":"VEC3"
		},
		{
			"bufferView":105,
			"componentType":5126,
			"count":2,
			"type":"VEC3"
		},
		{
			"bufferView":106,
			"componentType":5126,
			"count":33,
			"type":"VEC4"
		},
		{
			"bufferView":107,
			"componentType":5126,
			"count":2,
			"type":"VEC3"
		},
		{
			"bufferView":108,
			"componentType":5126,
			"count":2,
			"type":"VEC3"
		},
		{
			"bufferView":109,
			"componentType":5126,
			"count":33,
			"type":"VEC4"
		},
		{
			"bufferView":110,
			"componentType":5126,
			"count":2,
			"type":"VEC3"
		},
		{
			"bufferView":111,
			"componentType":5126,
			"count":2,
			"type":"VEC3"
		},
		{
			"bufferView":112,
			"componentType":5126,
			"count":33,
			"type":"VEC4"
		},
		{
			"bufferView":113,
			"componentType":5126,
			"count":2,
			"type":"VEC3"
		},
		{
			"bufferView":114,
			"componentType":5126,
			"count":2,
			"type":"VEC3"
		},
		{
			"bufferView":115,
			"componentType":5126,
			"count":33,
			"type":"VEC4"
		},
		{
			"bufferView":116,
			"componentType":5126,
			"count":2,
			"type":"VEC3"
		},
		{
			"bufferView":117,
			"componentType":5126,
			"count":2,
			"type":"VEC3"
		},
		{
			"bufferView":118,
			"componentType":5126,
			"count":2,
			"type":"VEC4"
		},
		{
			"bufferView":119,
			"componentType":5126,
			"count":2,
			"type":"VEC3"
		}
	],
	"bufferViews":[
		{
			"buffer":0,
			"byteLength":124956,
			"byteOffset":0,
			"target":34962
		},
		{
			"buffer":0,
			"byteLength":124956,
			"byteOffset":124956,
			"target":34962
		},
		{
			"buffer":0,
			"byteLength":83304,
			"byteOffset":249912,
			"target":34962
		},
		{
			"buffer":0,
			"byteLength":41652,
			"byteOffset":333216,
			"target":34962
		},
		{
			"buffer":0,
			"byteLength":166608,
			"byteOffset":374868,
			"target":34962
		},
		{
			"buffer":0,
			"byteLength":117372,
			"byteOffset":541476,
			"target":34963
		},
		{
			"buffer":0,
			"byteLength":2304,
			"byteOffset":658848
		},
		{
			"buffer":0,
			"byteLength":8,
			"byteOffset":661152
		},
		{
			"buffer":0,
			"byteLength":24,
			"byteOffset":661160
		},
		{
			"buffer":0,
			"byteLength":32,
			"byteOffset":661184
		},
		{
			"buffer":0,
			"byteLength":24,
			"byteOffset":661216
		},
		{
			"buffer":0,
			"byteLength":132,
			"byteOffset":661240
		},
		{
			"buffer":0,
			"byteLength":396,
			"byteOffset":661372
		},
		{
			"buffer":0,
			"byteLength":528,
			"byteOffset":661768
		},
		{
			"buffer":0,
			"byteLength":24,
			"byteOffset":662296
		},
		{
			"buffer":0,
			"byteLength":24,
			"byteOffset":662320
		},
		{
			"buffer":0,
			"byteLength":528,
			"byteOffset":662344
		},
		{
			"buffer":0,
			"byteLength":24,
			"byteOffset":662872
		},
		{
			"buffer":0,
			"byteLength":24,
			"byteOffset":662896
		},
		{
			"buffer":0,
			"byteLength":528,
			"byteOffset":662920
		},
		{
			"buffer":0,
			"byteLength":24,
			"byteOffset":663448
		},
		{
			"buffer":0,
			"byteLength":24,
			"byteOffset":663472
		},
		{
			"buffer":0,
			"byteLength":528,
			"byteOffset":663496
		},
		{
			"buffer":0,
			"byteLength":24,
			"byteOffset":664024
		},
		{
			"buffer":0,
			"byteLength":24,
			"byteOffset":664048
		},
		{
			"buffer":0,
			"byteLength":528,
			"byteOffset":664072
		},
		{
			"buffer":0,
			"byteLength":24,
			"byteOffset":664600
		},
		{
			"buffer":0,
			"byteLength":24,
			"byteOffset":664624
		},
		{
			"buffer":0,
			"byteLength":528,
			"byteOffset":664648
		},
		{
			"buffer":0,
			"byteLength":24,
			"byteOffset":665176
		},
		{
			"buffer":0,
			"byteLength":24,
			"byteOffset":665200
		},
		{
			"buffer":0,
			"byteLength":528,
			"byteOffset":665224
		},
		{
			"buffer":0,
			"byteLength":24,
			"byteOffset":665752
		},
		{
			"buffer":0,
			"byteLength":24,
			"byteOffset":665776
		},
		{
			"buffer":0,
			"byteLength":528,
			"byteOffset":665800
		},
		{
			"buffer":0,
			"byteLength":24,
			"byteOffset":666328
		},
		{
			"buffer":0,
			"byteLength":24,
			"byteOffset":666352
		},
		{
			"buffer":0,
			"byteLength":528,
			"byteOffset":666376
		},
		{
			"buffer":0,
			"byteLength":24,
			"byteOffset":666904
		},
		{
			"buffer":0,
			"byteLength":24,
			"byteOffset":666928
		},
		{
			"buffer":0,
			"byteLength":528,
			"byteOffset":666952
		},
		{
			"buffer":0,
			"byteLength":24,
			"byteOffset":667480
		},
		{
			"buffer":0,
			"byteLength":24,
			"byteOffset":667504
		},
		{
			"buffer":0,
			"byteLength":528,
			"byteOffset":667528
		},
		{
			"buffer":0,
			"byteLength":24,
			"byteOffset":668056
		},
		{
			"buffer":0,
			"byteLength":396,
			"byteOffset":668080
		},
		{
			"buffer":0,
			"byteLength":528,
			"byteOffset":668476
		},
		{
			"buffer":0,
			"byteLength":24,
			"byteOffset":669004
		},
		{
			"buffer":0,
			"byteLength":24,
			"byteOffset":669028
		},
		{
			"buffer":0,
			"byteLength":528,
			"byteOffset":669052
		},
		{
			"buffer":0,
			"byteLength":24,
			"byteOffset":669580
		},
		{
			"buffer":0,
			"byteLength":24,
			"byteOffset":669604
		},
		{
			"buffer":0,
			"byteLength":528,
			"byteOffset":669628
		},
		{
			"buffer":0,
			"byteLength":24,
			"byteOffset":670156
		},
		{
			"buffer":0,
			"byteLength":24,
			"byteOffset":670180
		},
		{
			"buffer":0,
			"byteLength":528,
			"byteOffset":670204
		},
		{
			"buffer":0,
			"byteLength":24,
			"byteOffset":670732
		},
		{
			"buffer":0,
			"byteLength":24,
			"byteOffset":670756
		},
		{
			"buffer":0,
			"byteLength":528,
			"byteOffset":670780
		},
		{
			"buffer":0,
			"byteLength":24,
			"byteOffset":671308
		},
		{
			"buffer":0,
			"byteLength":396,
			"byteOffset":671332
		},
		{
			"buffer":0,
			"byteLength":528,
			"byteOffset":671728
		},
		{
			"buffer":0,
			"byteLength":24,
			"byteOffset":672256
		},
		{
			"buffer":0,
			"byteLength":396,
			"byteOffset":672280
		},
		{
			"buffer":0,
			"byteLength":528,
			"byteOffset":672676
		},
		{
			"buffer":0,
			"byteLength":24,
			"byteOffset":673204
		},
		{
			"buffer":0,
			"byteLength":24,
			"byteOffset":673228
		},
		{
			"buffer":0,
			"byteLength":528,
			"byteOffset":673252
		},
		{
			"buffer":0,
			"byteLength":24,
			"byteOffset":673780
		},
		{
			"buffer":0,
			"byteLength":24,
			"byteOffset":673804
		},
		{
			"buffer":0,
			"byteLength":528,
			"byteOffset":673828
		},
		{
			"buffer":0,
			"byteLength":24,
			"byteOffset":674356
		},
		{
			"buffer":0,
			"byteLength":24,
			"byteOffset":674380
		},
		{
			"buffer":0,
			"byteLength":528,
			"byteOffset":674404
		},
		{
			"buffer":0,
			"byteLength":24,
			"byteOffset":674932
		},
		{
			"buffer":0,
			"byteLength":24,
			"byteOffset":674956
		},
		{
			"buffer":0,
			"byteLength":528,
			"byteOffset":674980
		},
		{
			"buffer":0,
			"byteLength":24,
			"byteOffset":675508
		},
		{
			"buffer":0,
			"byteLength":24,
			"byteOffset":675532
		},
		{
			"buffer":0,
			"byteLength":528,
			"byteOffset":675556
		},
		{
			"buffer":0,
			"byteLength":24,
			"byteOffset":676084
		},
		{
			"buffer":0,
			"byteLength":24,
			"byteOffset":676108
		},
		{
			"buffer":0,
			"byteLength":528,
			"byteOffset":676132
		},
		{
			"buffer":0,
			"byteLength":24,
			"byteOffset":676660
		},
		{
			"buffer":0,
			"byteLength":24,
			"byteOffset":676684
		},
		{
			"buffer":0,
			"byteLength":528,
			"byteOffset":676708
		},
		{
			"buffer":0,
			"byteLength":24,
			"byteOffset":677236
		},
		{
			"buffer":0,
			"byteLength":396,
			"byteOffset":677260
		},
		{
			"buffer":0,
			"byteLength":528,
			"byteOffset":677656
		},
		{
			"buffer":0,
			"byteLength":24,
			"byteOffset":678184
		},
		{
			"buffer":0,
			"byteLength":24,
			"byteOffset":678208
		},
		{
			"buffer":0,
			"byteLength":528,
			"byteOffset":678232
		},
		{
			"buffer":0,
			"byteLength":24,
			"byteOffset":678760
		},
		{
			"buffer":0,
			"byteLength":24,
			"byteOffset":678784
		},
		{
			"buffer":0,
			"byteLength":528,
			"byteOffset":678808
		},
		{
			"buffer":0,
			"byteLength":24,
			"byteOffset":679336
		},
		{
			"buffer":0,
			"byteLength":24,
			"byteOffset":679360
		},
		{
			"buffer":0,
			"byteLength":528,
			"byteOffset":679384
		},
		{
			"buffer":0,
			"byteLength":24,
			"byteOffset":679912
		},
		{
			"buffer":0,
			"byteLength":24,
			"byteOffset":679936
		},
		{
			"buffer":0,
			"byteLength":528,
			"byteOffset":679960
		},
		{
			"buffer":0,
			"byteLength":24,
			"byteOffset":680488
		},
		{
			"buffer":0,
			"byteLength":396,
			"byteOffset":680512
		},
		{
			"buffer":0,
			"byteLength":528,
			"byteOffset":680908
		},
		{
			"buffer":0,
			"byteLength":24,
			"byteOffset":681436
		},
		{
			"buffer":0,
			"byteLength":24,
			"byteOffset":681460
		},
		{
			"buffer":0,
			"byteLength":528,
			"byteOffset":681484
		},
		{
			"buffer":0,
			"byteLength":24,
			"byteOffset":682012
		},
		{
			"buffer":0,
			"byteLength":24,
			"byteOffset":682036
		},
		{
			"buffer":0,
			"byteLength":528,
			"byteOffset":682060
		},
		{
			"buffer":0,
			"byteLength":24,
			"byteOffset":682588
		},
		{
			"buffer":0,
			"byteLength":24,
			"byteOffset":682612
		},
		{
			"buffer":0,
			"byteLength":528,
			"byteOffset":682636
		},
		{
			"buffer":0,
			"byteLength":24,
			"byteOffset":683164
		},
		{
			"buffer":0,
			"byteLength":24,
			"byteOffset":683188
		},
		{
			"buffer":0,
			"byteLength":528,
			"byteOffset":683212
		},
		{
			"buffer":0,
			"byteLength":24,
			"byteOffset":683740
		},
		{
			"buffer":0,
			"byteLength":24,
			"byteOffset":683764
		},
		{
			"buffer":0,
			"byteLength":32,
			"byteOffset":683788
		},
		{
			"buffer":0,
			"byteLength":24,
			"byteOffset":683820
		}
	],
	"buffers":[
		{
			"byteLength":683844,
			"uri":"data:application/octet-stream;base64,"
		}
	]
}
